<?xml version="1.0" encoding="UTF-8" standalone="no"?>
<svg
   height="24px"
   viewBox="0 0 24 24"
   width="24px"
   fill="#000000"
   version="1.1"
   id="svg237"
   sodipodi:docname="shopping_cart.svg"
   inkscape:version="1.1 (c68e22c387, 2021-05-23)"
   xmlns:inkscape="http://www.inkscape.org/namespaces/inkscape"
   xmlns:sodipodi="http://sodipodi.sourceforge.net/DTD/sodipodi-0.dtd"
   xmlns="http://www.w3.org/2000/svg"
   xmlns:svg="http://www.w3.org/2000/svg">
  <defs
     id="defs241" />
  <sodipodi:namedview
     id="namedview239"
     pagecolor="#ffffff"
     bordercolor="#666666"
     borderopacity="1.0"
     inkscape:pageshadow="2"
     inkscape:pageopacity="0.0"
     inkscape:pagecheckerboard="0"
     showgrid="false"
     inkscape:zoom="33.833333"
     inkscape:cx="11.985222"
     inkscape:cy="11.985222"
     inkscape:window-width="2400"
     inkscape:window-height="1271"
     inkscape:window-x="2391"
     inkscape:window-y="-9"
     inkscape:window-maximized="1"
     inkscape:current-layer="svg237" />
  <path
     d="M0 0h24v24H0V0z"
     fill="none"
     id="path233" />
  <path
     d="M15.55 13c.75 0 1.41-.41 1.75-1.03l3.58-6.49c.37-.66-.11-1.48-.87-1.48H5.21l-.94-2H1v2h2l3.6 7.59-1.35 2.44C4.52 15.37 5.48 17 7 17h12v-2H7l1.1-2h7.45zM6.16 6h12.15l-2.76 5H8.53L6.16 6zM7 18c-1.1 0-1.99.9-1.99 2S5.9 22 7 22s2-.9 2-2-.9-2-2-2zm10 0c-1.1 0-1.99.9-1.99 2s.89 2 1.99 2 2-.9 2-2-.9-2-2-2z"
     id="path235"
     style="fill:#ffffff" />
</svg>
